# xmcd
#
# Track frame offsets:
#	150
#	21062
#	42943
#	60500
#	86016
#	106978
#	126391
#	147482
#	170981
#	199337
#
# Disc length: 2900 seconds
#
# Revision: 2993229944
# Processed by: cddbd v1.5.2PL0 Copyright (c) Steve Scherf et al.
# Submitted via: EZCDAudioConverter 8.0.2.1
#
DISCID=930b520a
DTITLE=Thu Hà - Nhạc CM. Ta Tìm Về
DYEAR=2011
DGENRE=World Pop
TTITLE0=Thu Hà - Mùa xuân làng lúa làng hoa
TTITLE1=Thu Hà, Tân Nhàn - Dáng đứng Bến Tre
TTITLE2=Thu Hà, Việt Hoàn - Đi tìm người hát lý thương nhau
TTITLE3=Thu Hà - Níu áo người thương
TTITLE4=Thu Hà - Câu hát quê hương
TTITLE5=Thu Hà - Nghe câu quan họ trên cao nguyên
TTITLE6=Thu Hà, Việt Hoàn - Nghệ Tĩnh mình đây
TTITLE7=Thu Hà - Nghe em hát còn duyên
TTITLE8=Thu Hà - Qua bến Đò Quan
TTITLE9=Thu Hà, Tân Nhàn - Những cô gái đồng bằng sông Cửu Long
EXTD=
EXTT0=
EXTT1=
EXTT2=
EXTT3=
EXTT4=
EXTT5=
EXTT6=
EXTT7=
EXTT8=
EXTT9=
PLAYORDER=
